<svg xmlns="http://www.w3.org/2000/svg" width="600" height="400" viewBox="0 0 600 400"><rect width="100%" height="100%" fill="#DDDDDD"/><path fill="#999999" d="M138.905 213.84q2.14 0 3.83-.71 1.69-.72 2.85-2.01 1.15-1.29 1.77-3.13.62-1.85.62-4.13v-23.82h7.4v23.82q0 3.55-1.14 6.56t-3.27 5.2q-2.14 2.18-5.19 3.41-3.05 1.22-6.87 1.22-3.85 0-6.91-1.22-3.05-1.23-5.18-3.41-2.13-2.19-3.27-5.2t-1.14-6.56v-23.82h7.39v23.79q0 2.28.62 4.13.62 1.84 1.79 3.15 1.17 1.3 2.86 2.02 1.69.71 3.84.71m-2.37-39.87q0 .74-.3 1.4t-.81 1.15q-.51.5-1.2.77-.69.28-1.46.28-.71 0-1.36-.28-.64-.27-1.14-.77-.49-.49-.8-1.15-.3-.66-.3-1.4 0-.75.3-1.42.31-.67.8-1.18.5-.51 1.14-.81.65-.3 1.36-.3.77 0 1.46.3t1.2.81.81 1.18.3 1.42m12.1 0q0 .74-.29 1.4t-.79 1.15q-.51.5-1.19.77-.67.28-1.41.28-.77 0-1.45-.28-.67-.27-1.17-.77-.49-.49-.78-1.15t-.29-1.4q0-.75.29-1.42t.78-1.18q.5-.51 1.17-.81.68-.3 1.45-.3.74 0 1.41.3.68.3 1.19.81.5.51.79 1.18t.29 1.42m20.02 19.33.41 3.19q1.32-2.53 3.14-3.97 1.81-1.45 4.29-1.45 1.95 0 3.13.85l-.44 5.09q-.13.5-.39.7-.27.21-.71.21-.41 0-1.22-.14-.81-.13-1.58-.13-1.13 0-2.01.32-.88.34-1.58.95-.7.62-1.24 1.5-.53.88-1 2.01v17.38h-6.79V191.6h3.98q1.05 0 1.46.37t.55 1.33m32.04-1.7h6.79v28.21h-4.15q-1.35 0-1.71-1.24l-.46-2.25q-1.74 1.76-3.83 2.84-2.09 1.09-4.92 1.09-2.31 0-4.08-.78-1.78-.79-2.99-2.22t-1.82-3.39q-.62-1.97-.62-4.34V191.6h6.79v17.92q0 2.59 1.2 4.01 1.19 1.41 3.58 1.41 1.76 0 3.3-.78t2.92-2.16zm-7.12-7.32q0 .77-.31 1.44-.3.68-.83 1.17-.54.5-1.24.79t-1.5.29q-.74 0-1.42-.29-.67-.29-1.18-.79-.51-.49-.81-1.17-.3-.67-.3-1.44 0-.8.3-1.5t.81-1.22 1.18-.83q.68-.3 1.42-.3.8 0 1.5.3.7.31 1.24.83.53.52.83 1.22.31.7.31 1.5m11.11 0q0 .77-.31 1.44-.3.68-.81 1.17-.51.5-1.21.79t-1.5.29q-.77 0-1.45-.29-.69-.29-1.2-.79-.51-.49-.81-1.17-.3-.67-.3-1.44 0-.8.3-1.5t.81-1.22 1.2-.83q.68-.3 1.45-.3.8 0 1.5.3.7.31 1.21.83t.81 1.22q.31.7.31 1.5m15.4 8.55.46 2.23q.86-.85 1.81-1.58.94-.73 2-1.24t2.27-.8 2.64-.29q2.31 0 4.1.79 1.79.78 2.98 2.2 1.2 1.42 1.82 3.38.62 1.97.62 4.33v17.96h-6.8v-17.96q0-2.58-1.18-4t-3.6-1.42q-1.76 0-3.3.8t-2.92 2.17v20.41h-6.79V191.6h4.15q1.32 0 1.74 1.23m64.65-6.9h-17.66v11.77h14.91v5.91h-14.91v16.2h-7.42v-39.77h25.08zm17.46 5.22q3.14 0 5.71 1.02t4.4 2.89 2.82 4.57q.99 2.69.99 6.02 0 3.35-.99 6.05-.99 2.69-2.82 4.59t-4.4 2.92q-2.57 1.01-5.71 1.01-3.16 0-5.75-1.01-2.58-1.02-4.41-2.92t-2.83-4.59q-1.01-2.7-1.01-6.05 0-3.33 1.01-6.02 1-2.7 2.83-4.57t4.41-2.89q2.59-1.02 5.75-1.02m0 23.85q3.52 0 5.21-2.37 1.69-2.36 1.69-6.93 0-4.56-1.69-6.96-1.69-2.39-5.21-2.39-3.57 0-5.29 2.41t-1.72 6.94q0 4.54 1.72 6.92t5.29 2.38m28.52 5.25q-3.69 0-5.65-2.08-1.97-2.07-1.97-5.73v-15.76h-2.89q-.55 0-.93-.35-.39-.36-.39-1.08v-2.69l4.54-.75 1.43-7.7q.14-.54.52-.85.39-.3.99-.3h3.52v8.88h7.54v4.84h-7.54v15.29q0 1.32.65 2.06.65.75 1.77.75.64 0 1.06-.15.43-.15.75-.32.31-.17.56-.32t.49-.15q.31 0 .5.15t.41.46l2.04 3.3q-1.49 1.24-3.41 1.87-1.93.63-3.99.63m23.54-29.1q3.13 0 5.71 1.02 2.57 1.02 4.4 2.89 1.82 1.87 2.81 4.57.99 2.69.99 6.02 0 3.35-.99 6.05-.99 2.69-2.81 4.59-1.83 1.9-4.4 2.92-2.58 1.01-5.71 1.01-3.16 0-5.75-1.01-2.58-1.02-4.41-2.92t-2.83-4.59q-1.01-2.7-1.01-6.05 0-3.33 1.01-6.02 1-2.7 2.83-4.57t4.41-2.89q2.59-1.02 5.75-1.02m0 23.85q3.52 0 5.21-2.37 1.69-2.36 1.69-6.93 0-4.56-1.69-6.96-1.69-2.39-5.21-2.39-3.58 0-5.29 2.41-1.72 2.41-1.72 6.94 0 4.54 1.72 6.92 1.71 2.38 5.29 2.38m29.42-9.98q1.27 0 2.2-.35.94-.34 1.56-.95.62-.6.93-1.46.32-.85.32-1.86 0-2.09-1.25-3.32-1.25-1.22-3.76-1.22-2.5 0-3.75 1.22-1.25 1.23-1.25 3.32 0 .98.32 1.84.31.85.93 1.47t1.57.96q.95.35 2.18.35m7.68 16.05q0-.82-.5-1.34-.49-.52-1.35-.81-.85-.29-1.99-.43t-2.42-.21q-1.28-.06-2.64-.12t-2.65-.22q-1.13.63-1.83 1.48-.7.86-.7 1.98 0 .75.37 1.39.37.65 1.18 1.12t2.1.73q1.3.26 3.17.26 1.89 0 3.27-.29 1.37-.29 2.27-.8.89-.51 1.3-1.21.42-.7.42-1.53m-1.35-28.51h8.11v2.53q0 1.21-1.46 1.48l-2.53.47q.58 1.46.58 3.19 0 2.09-.84 3.78t-2.32 2.87q-1.49 1.19-3.51 1.83-2.02.65-4.36.65-.82 0-1.59-.08-.77-.09-1.51-.22-1.32.79-1.32 1.79 0 .85.78 1.25.78.39 2.08.56 1.29.16 2.94.21 1.65.04 3.38.18 1.73.13 3.38.48 1.65.34 2.95 1.08 1.29.74 2.07 2.02.79 1.28.79 3.29 0 1.87-.92 3.63-.93 1.76-2.67 3.14-1.75 1.37-4.29 2.21-2.55.84-5.79.84-3.19 0-5.56-.62-2.36-.62-3.93-1.65t-2.34-2.38-.77-2.8q0-1.99 1.2-3.32t3.29-2.13q-1.13-.58-1.79-1.54t-.66-2.53q0-.63.23-1.31.24-.67.69-1.33t1.14-1.25 1.62-1.06q-2.14-1.15-3.36-3.08-1.23-1.93-1.23-4.51 0-2.09.84-3.78t2.34-2.89 3.55-1.83q2.04-.63 4.46-.63 1.82 0 3.41.37 1.6.37 2.92 1.09m-5.67-4.68q-2.36 0-3.94-.62-1.58-.61-2.56-1.69-.98-1.07-1.39-2.5t-.41-3.03h4.76q0 .83.15 1.49t.55 1.11q.4.46 1.08.7.69.25 1.76.25 1.08 0 1.76-.25.69-.24 1.09-.7.4-.45.55-1.11t.15-1.49h4.76q0 1.6-.41 3.03-.42 1.43-1.39 2.5-.98 1.08-2.57 1.69-1.6.62-3.94.62m24.07 5.42.41 3.19q1.32-2.53 3.13-3.97 1.82-1.45 4.29-1.45 1.96 0 3.14.85l-.44 5.09q-.14.5-.4.7-.26.21-.7.21-.41 0-1.22-.14-.82-.13-1.59-.13-1.12 0-2 .32-.88.34-1.58.95-.71.62-1.24 1.5-.54.88-1.01 2.01v17.38h-6.79V191.6h3.99q1.04 0 1.46.37.41.37.55 1.33m29.42 19.22v-4.75q-2.94.13-4.95.5t-3.22.95-1.73 1.35-.52 1.68q0 1.78 1.06 2.56 1.06.76 2.76.76 2.09 0 3.62-.75 1.52-.76 2.98-2.3m-14.35-14.82-1.21-2.17q4.86-4.46 11.71-4.46 2.48 0 4.43.81 1.95.82 3.3 2.26t2.05 3.45.7 4.4v17.82h-3.08q-.96 0-1.49-.29-.52-.29-.82-1.17l-.61-2.03q-1.07.96-2.09 1.69-1.01.73-2.11 1.22-1.1.5-2.35.76-1.26.26-2.77.26-1.79 0-3.3-.48t-2.61-1.45q-1.1-.96-1.71-2.39-.6-1.43-.6-3.33 0-1.07.36-2.13.35-1.05 1.17-2.02.81-.96 2.1-1.81 1.29-.86 3.18-1.49 1.88-.63 4.38-1.03t5.72-.48v-1.65q0-2.83-1.21-4.19-1.21-1.37-3.49-1.37-1.65 0-2.74.39-1.08.38-1.91.87-.82.48-1.5.86-.67.39-1.5.39-.71 0-1.21-.37-.49-.37-.79-.87m36.13 22.11h-6.79v-23.1l-2.45-.38q-.8-.17-1.28-.57t-.48-1.14v-2.78h4.21v-2.09q0-2.42.73-4.34.73-1.93 2.09-3.27 1.36-1.35 3.31-2.07 1.95-.71 4.4-.71 1.95 0 3.63.52l-.14 3.41q-.02.39-.22.62-.19.23-.5.36-.32.12-.73.16-.42.04-.88.04-1.21 0-2.16.26-.95.27-1.61.91-.66.65-1 1.71-.35 1.05-.35 2.62v1.87h7.34v4.84h-7.12zm11.19-28.21h6.8v28.21h-6.8z"/></svg>